# xmcd
#
# Track frame offsets:
#	150
#	16673
#	30165
#	43679
#	55284
#	67865
#	84715
#	99981
#	116417
#	127540
#	140709
#	152736
#	167943
#	179763
#	195898
#	210973
#
# Disc length: 3060 seconds
#
# Revision: 1
# Processed by: cddbd v1.5.2PL0 Copyright (c) Steve Scherf et al.
# Submitted via: audiograbber 1.83.01
#
DISCID=c30bf210
DTITLE=Michael English - All My Life
DYEAR=2008
DGENRE=
TTITLE0=I Will Love You All My Life
TTITLE1=Make The World Go Away
TTITLE2=More Than Yesterday
TTITLE3=Do What You Do Do Well
TTITLE4=I'll Pretend
TTITLE5=Sing Me An Old Fashioned Song
TTITLE6=Rock 'N' Roll Kids
TTITLE7=In This Life
TTITLE8=When The Girl In Your Arms
TTITLE9=A Little Peace
TTITLE10=It's Only Make Believe
TTITLE11=Pal Of My Cradle Days
TTITLE12=The Night Has A Thousand Eyes
TTITLE13=Maggie
TTITLE14=Open Arms
TTITLE15=The Way Old Friends Do
EXTD=
EXTT0=
EXTT1=
EXTT2=
EXTT3=
EXTT4=
EXTT5=
EXTT6=
EXTT7=
EXTT8=
EXTT9=
EXTT10=
EXTT11=
EXTT12=
EXTT13=
EXTT14=
EXTT15=
PLAYORDER=
